<svg version="1.1" id="Layer_1" xmlns="http://www.w3.org/2000/svg" xmlns:xlink="http://www.w3.org/1999/xlink" x="0px" y="0px"
	 width="100%" viewBox="0 0 763 406" enable-background="new 0 0 763 406" xml:space="preserve">
<path fill="#FEFEFE" opacity="1.000000" stroke="none" 
	d="
M550.000000,407.000000 
	C366.666656,407.000000 183.833328,407.000000 1.000000,407.000000 
	C1.000000,271.666656 1.000000,136.333328 1.000000,1.000000 
	C255.333328,1.000000 509.666656,1.000000 764.000000,1.000000 
	C764.000000,136.333328 764.000000,271.666656 764.000000,407.000000 
	C692.833313,407.000000 621.666687,407.000000 550.000000,407.000000 
M317.886871,90.466454 
	C317.588593,90.291672 317.290344,90.116890 316.696716,89.241348 
	C314.300903,87.011726 312.433716,86.724648 311.658752,90.589119 
	C310.727142,95.234741 309.778168,99.876877 308.337341,104.985153 
	C308.270081,105.651772 308.202820,106.318390 307.829529,107.760353 
	C307.115540,110.619469 306.401520,113.478577 305.482086,117.160431 
	C296.222412,117.160431 287.106201,117.096527 277.992249,117.210579 
	C276.003235,117.235474 272.947937,116.355156 273.304474,120.672943 
	C273.540802,120.972649 273.777130,121.272354 274.068970,122.329849 
	C274.473907,122.571754 274.878845,122.813667 275.388794,123.089317 
	C275.388794,123.089317 275.199341,123.223450 274.784760,123.872200 
	C278.581024,133.253540 282.377258,142.634888 286.228577,152.804916 
	C286.181458,153.541138 286.134369,154.277359 285.430817,155.228912 
	C283.568329,156.972015 281.705872,158.715118 279.281189,160.671906 
	C276.502899,163.027771 273.782104,165.456100 270.929718,167.718552 
	C268.231842,169.858429 268.465851,171.625412 271.141266,173.578644 
	C274.348907,175.920441 277.431000,178.434280 280.922668,181.382675 
	C295.645355,193.288986 310.368011,205.195297 325.042877,217.062927 
	C324.565155,218.775970 324.171478,220.187546 323.283691,221.980560 
	C323.157013,222.583755 323.030334,223.186935 322.381775,224.216095 
	C321.965057,225.478394 321.548340,226.740707 320.727997,228.602264 
	C318.477509,234.382812 316.227051,240.163361 313.462433,246.372009 
	C313.245544,247.223297 313.028656,248.074585 312.281250,249.460434 
	C312.185913,253.154800 314.987610,252.129684 316.904907,252.137070 
	C333.060272,252.199326 349.215942,252.173370 365.371521,252.175247 
	C376.608032,252.176559 376.603882,252.175934 380.435791,241.808350 
	C380.766296,240.914230 381.201416,240.058777 381.539581,239.294708 
	C387.706238,239.294708 393.656006,239.294708 399.815155,239.294708 
	C400.787659,241.826385 402.116364,244.368820 402.721405,247.073166 
	C403.652618,251.235367 405.876923,252.340103 410.061249,252.280167 
	C427.712158,252.027374 445.368805,252.182312 463.023346,252.161331 
	C464.937103,252.159058 466.850708,251.983551 469.814423,251.836182 
	C468.258942,248.006012 467.040802,245.006454 465.908752,241.529877 
	C465.856171,241.152023 465.640289,240.941971 465.165833,240.147049 
	C462.557190,233.608765 459.878479,227.096863 457.397919,220.510345 
	C456.891785,219.166428 457.130035,217.542145 457.675140,215.848770 
	C471.890076,204.283096 486.104980,192.717422 500.951324,180.955200 
	C502.605194,179.605179 504.247131,178.240204 505.914978,176.907639 
	C514.429688,170.104645 514.432007,170.107574 505.114441,163.244888 
	C504.417816,162.743652 503.721222,162.242416 502.754608,161.157135 
	C500.592346,159.400482 498.430084,157.643829 496.029938,155.312714 
	C495.362335,154.852982 494.694733,154.393234 493.966675,153.147400 
	C494.088226,151.308899 494.209747,149.470413 494.377899,147.521652 
	C494.377899,147.521652 494.327911,147.213089 494.981110,147.131363 
	C495.712067,146.373108 496.717621,145.740387 497.130707,144.836823 
	C500.511841,137.440918 503.828705,130.014603 507.069031,122.555809 
	C508.952576,118.220230 508.344116,117.349762 503.629456,117.162346 
	C494.986938,116.818794 486.339142,116.569633 477.706512,116.060516 
	C476.407013,115.983871 475.177795,114.715240 474.044189,113.487572 
	C473.969513,113.328842 473.894806,113.170120 473.900696,112.401520 
	C473.558563,111.116417 473.216461,109.831306 473.014069,108.033646 
	C472.920441,107.699730 472.826782,107.365814 472.742676,106.251579 
	C471.763428,101.189377 470.816345,96.120667 469.792755,91.067451 
	C469.197510,88.129173 468.132538,86.070122 464.466095,89.324760 
	C463.687195,90.230515 462.908295,91.136269 461.566956,92.275581 
	C461.058533,92.893654 460.550110,93.511726 459.466949,94.326271 
	C458.686157,95.234169 457.905365,96.142067 457.040436,97.040962 
	C457.040436,97.040962 457.049408,97.125084 456.475677,97.323013 
	C455.693573,98.229355 454.911499,99.135689 453.567078,100.275604 
	C453.058624,100.893684 452.550171,101.511765 451.465973,102.327080 
	C450.640320,103.215546 449.814697,104.104004 448.325531,105.145020 
	C447.275635,106.132309 446.225708,107.119606 445.499115,107.802856 
	C437.888458,104.699188 436.024872,99.473000 437.049591,91.835846 
	C438.684967,79.647392 439.227692,67.312355 440.232635,55.039310 
	C440.650146,49.940434 439.958740,49.385799 435.102692,51.159641 
	C428.148651,53.699821 421.219879,56.309196 414.106445,58.953678 
	C407.550568,48.704464 401.196838,38.777416 394.849640,28.846188 
	C390.847900,22.584803 390.408051,22.581331 386.423706,28.840286 
	C386.245026,29.120983 386.097778,29.421751 385.918121,29.701786 
	C379.674835,39.432785 373.429474,49.162434 367.143585,58.955799 
	C360.156586,56.280533 353.670929,53.769081 347.163818,51.314472 
	C341.789703,49.287235 341.022675,49.918499 341.443420,55.514698 
	C342.528534,69.947746 343.578583,84.383698 344.535431,98.825592 
	C344.610901,99.964172 344.201874,101.525627 343.423035,102.256973 
	C341.055756,104.479927 338.396637,106.392059 334.760315,109.296471 
	C329.303253,103.298904 324.159943,97.646202 318.888794,91.484612 
	C318.597260,91.317757 318.305756,91.150909 318.000000,91.000000 
	C318.000000,91.000000 318.015472,90.985382 317.886871,90.466454 
M438.642059,317.103333 
	C437.788116,316.880371 436.623260,316.938538 436.128204,316.391052 
	C431.035553,310.759003 425.106384,310.180267 419.011169,314.833221 
	C417.796448,315.760529 416.529114,316.618866 414.894257,317.789581 
	C414.610535,315.374084 414.423676,313.783020 414.203033,311.904510 
	C409.581543,312.908997 405.221527,313.801666 400.899353,314.850372 
	C400.180878,315.024719 399.627441,315.879272 398.997742,316.419495 
	C399.601318,316.986511 400.180817,318.011261 400.812469,318.044495 
	C404.286987,318.227295 404.759949,320.541229 404.774139,323.228333 
	C404.805817,329.224640 404.875671,335.222656 404.765900,341.216919 
	C404.720459,343.698303 404.661102,346.341125 400.844116,346.267700 
	C400.171478,346.254791 399.461823,348.164917 398.557831,349.498993 
	C406.323944,349.498993 412.931122,349.498993 420.883301,349.498993 
	C419.549957,347.976227 418.723816,347.070038 417.940125,346.128540 
	C416.859344,344.830261 414.994385,343.565674 414.892029,342.181152 
	C414.487885,336.715973 414.533112,331.207794 414.621948,325.718964 
	C414.693054,321.324127 417.271332,318.974823 421.513458,319.009430 
	C425.857147,319.044830 427.297180,321.784271 427.382080,325.526978 
	C427.502899,330.854462 427.466827,336.186829 427.415527,341.516296 
	C427.392456,343.911835 427.295837,346.235321 423.793945,346.290527 
	C423.101837,346.301453 422.439270,348.189392 421.572998,349.499176 
	C429.470398,349.499176 436.228577,349.499176 444.608734,349.499176 
	C442.963562,347.854736 442.117065,346.275848 441.221924,346.247803 
	C438.236633,346.154114 437.542969,344.516266 437.543793,342.055573 
	C437.545746,336.393097 437.417145,330.724792 437.655518,325.072113 
	C437.717529,323.601501 438.577850,321.432343 439.698364,320.897675 
	C441.753052,319.917206 444.705688,318.966431 446.477936,319.773438 
	C448.208496,320.561401 449.833710,323.515045 449.938110,325.596558 
	C450.335175,333.513428 450.098206,341.462097 450.098206,349.445801 
	C455.640411,349.445801 460.557343,349.445801 466.430664,349.445801 
	C465.574158,348.050018 465.005951,346.332397 464.445190,346.334839 
	C459.731384,346.355225 460.235168,343.028473 460.211212,340.078278 
	C460.162476,334.082184 460.295898,328.083405 460.170837,322.089508 
	C460.039307,315.786072 456.482697,312.578369 450.257660,311.885468 
	C445.448151,311.350159 442.520782,314.222900 438.642059,317.103333 
M267.416779,349.204315 
	C269.668884,349.370148 271.920990,349.535980 275.571930,349.804840 
	C274.221741,347.905701 273.586578,346.263489 272.974396,346.272034 
	C268.801331,346.329956 269.098328,343.399200 269.063812,340.764832 
	C268.987457,334.937592 268.952209,329.107574 269.046356,323.281036 
	C269.119965,318.724701 267.677124,314.961456 263.363525,313.098022 
	C259.055878,311.237122 254.657562,311.003998 250.688614,314.275146 
	C249.215302,315.489410 247.662750,316.607544 245.051163,318.608643 
	C245.051163,308.969208 245.051163,300.642914 245.051163,292.462128 
	C240.310822,293.414368 236.233276,294.163361 232.197937,295.095062 
	C231.232224,295.318054 230.407013,296.149597 229.517181,296.701263 
	C230.419220,297.414062 231.256744,298.240997 232.245804,298.799805 
	C232.911530,299.175964 233.791412,299.173126 234.670349,299.360016 
	C234.867233,300.323486 235.169815,301.123840 235.173935,301.925690 
	C235.243103,315.404449 235.366211,328.884735 235.166931,342.360077 
	C235.148071,343.635376 233.052338,344.878448 231.923996,346.139313 
	C231.110764,347.048096 230.302795,347.961578 228.927490,349.508392 
	C237.256058,349.508392 244.145676,349.508392 252.837982,349.508392 
	C250.940323,347.783203 250.025223,346.249756 249.128220,346.260254 
	C245.687439,346.300568 245.362320,344.023712 245.287064,341.638275 
	C245.145370,337.147034 245.185257,332.649261 245.190521,328.154266 
	C245.197327,322.346130 247.600052,319.156921 252.015259,319.022583 
	C256.485382,318.886536 258.801819,321.680267 258.948242,327.993195 
	C259.112976,335.097046 258.986145,342.207642 258.986145,349.782135 
	C261.949280,349.551239 264.219116,349.374359 267.416779,349.204315 
M353.189941,349.502533 
	C354.642029,349.502533 356.094147,349.502533 357.546234,349.502533 
	C357.808899,349.019226 358.071594,348.535950 358.334259,348.052643 
	C356.237976,346.801697 354.141724,345.550781 351.588013,344.026855 
	C352.700958,340.608093 353.913361,336.883728 355.171539,333.018707 
	C358.210327,333.018707 361.029510,333.018890 363.848724,333.018677 
	C375.065948,333.017944 375.067749,333.017242 378.774963,343.588013 
	C378.880585,343.889160 378.849182,344.238373 378.877472,344.565582 
	C373.340668,347.313782 373.340668,347.313782 373.551819,349.502930 
	C381.481354,349.502930 389.402283,349.502930 398.650116,349.502930 
	C397.448608,347.921173 396.808472,346.859558 395.958832,346.006744 
	C394.336578,344.378479 391.880798,343.188812 391.017273,341.259338 
	C384.853241,327.486176 378.792999,313.656708 373.179840,299.652740 
	C371.445435,295.325623 369.229248,294.071869 365.177979,295.310333 
	C359.116699,310.176819 353.113373,324.917450 347.093842,339.651459 
	C345.905151,342.560974 344.957458,345.609802 341.009460,346.130127 
	C340.352264,346.216766 339.946045,348.207581 339.309204,349.562286 
	C344.320953,349.562286 348.290222,349.562286 353.189941,349.502533 
M89.750771,319.642670 
	C84.792961,318.354980 79.848450,317.012878 74.873238,315.796356 
	C70.688095,314.772949 67.132439,313.068237 67.239517,308.052185 
	C67.342857,303.211639 70.449051,300.499451 74.780937,299.265320 
	C82.469536,297.074829 87.587654,300.631744 89.561798,309.285736 
	C93.182060,308.919800 93.182060,308.919800 93.579636,297.079346 
	C86.236053,293.920563 78.594467,293.270142 70.764061,295.030090 
	C62.091324,296.979431 57.670483,302.862427 57.803734,311.987823 
	C57.910629,319.308350 62.848244,324.398651 71.426872,326.012848 
	C74.364243,326.565552 77.363144,326.882843 80.236259,327.666016 
	C85.866631,329.200806 88.102936,333.875214 86.039734,339.310638 
	C84.185936,344.194397 78.637222,346.883667 72.357758,345.941833 
	C65.785126,344.956024 62.422592,341.755188 61.770348,336.258057 
	C61.639866,335.158356 60.479996,334.180786 59.794773,333.146881 
	C59.246166,334.141876 58.344978,335.092651 58.213600,336.139984 
	C57.781445,339.585022 57.628323,343.065125 57.330742,347.028076 
	C67.363403,351.469757 77.626549,352.706696 87.842903,347.498810 
	C99.106133,341.757233 100.270767,324.789459 89.750771,319.642670 
M465.760132,298.813416 
	C469.785828,298.374329 470.913025,300.423615 470.863220,304.149261 
	C470.718597,314.965790 470.868286,325.785889 470.777588,336.603577 
	C470.740540,341.022308 470.382172,345.438354 470.168915,349.877502 
	C472.905701,349.551636 475.450775,348.470215 477.389191,349.141266 
	C492.452881,354.355957 509.500732,341.149414 507.927368,325.253265 
	C507.112518,317.020416 500.986969,311.242401 492.777527,312.176727 
	C488.684753,312.642517 484.826904,315.172394 480.510925,316.910248 
	C480.510925,309.011383 480.510925,300.793365 480.510925,292.543030 
	C475.655609,293.492798 471.276886,294.202454 467.001373,295.310303 
	C466.151459,295.530487 465.696686,297.275604 465.760132,298.813416 
M633.333801,344.835693 
	C633.229553,338.351349 633.024353,331.866486 633.059570,325.382904 
	C633.080200,321.588928 635.656189,319.617981 639.047607,319.175751 
	C642.632385,318.708282 645.251648,320.559509 645.991394,324.162964 
	C646.555237,326.909851 646.712402,329.770020 646.767700,332.585327 
	C646.880188,338.305084 646.801331,344.028595 646.801331,349.687836 
	C652.348755,349.687836 657.127014,349.687836 662.972351,349.687836 
	C661.888428,348.204010 661.291260,346.615906 660.607788,346.577881 
	C656.619873,346.355957 656.827332,343.707611 656.843567,340.923981 
	C656.879456,334.762756 657.210876,328.566315 656.685730,322.447388 
	C655.877441,313.031006 646.394409,308.807434 638.661194,314.108795 
	C636.932800,315.293671 635.249390,316.544312 632.951050,318.190186 
	C632.951050,315.710846 632.951050,313.974274 632.951050,311.985565 
	C628.035889,313.031219 623.520447,313.948151 619.036377,314.998810 
	C618.449097,315.136383 617.640503,315.948486 617.625427,316.468262 
	C617.609253,317.023773 618.389648,318.076477 618.860474,318.098572 
	C623.377258,318.310425 623.014648,321.477692 622.993225,324.548065 
	C622.953674,330.211090 622.944092,335.874908 622.999878,341.537659 
	C623.024719,344.059570 622.832336,346.132874 619.552612,346.495087 
	C618.677673,346.591705 617.957397,348.089508 616.604065,349.551025 
	C624.813965,349.551025 631.838257,349.551025 638.862488,349.551025 
	C639.048767,349.038086 639.235107,348.525146 639.421387,348.012177 
	C637.569702,347.189514 635.718079,346.366852 633.333801,344.835693 
M311.385254,313.895813 
	C303.950928,309.297974 297.945770,312.921631 292.152100,318.092804 
	C291.881287,315.527618 291.699188,313.802765 291.496338,311.881165 
	C286.875153,312.897125 282.661652,313.747986 278.498962,314.799774 
	C277.625153,315.020569 276.938171,315.980774 276.165131,316.600281 
	C276.858215,317.114777 277.527252,318.031311 278.248535,318.074463 
	C281.436279,318.265167 281.986481,320.265411 281.976868,322.864441 
	C281.954071,329.020905 281.970520,335.177551 281.977325,341.334106 
	C281.980286,344.025726 281.733978,346.346466 278.029572,346.286957 
	C277.322937,346.275604 276.588501,347.996216 275.155212,349.826508 
	C279.997620,349.563080 283.452850,349.227722 286.908051,349.227692 
	C290.512909,349.227661 294.117767,349.550690 297.722595,349.732483 
	C297.966614,349.352661 298.210602,348.972839 298.454620,348.593018 
	C297.504730,347.773895 296.566345,346.274841 295.602905,346.258514 
	C292.221649,346.201233 291.907990,344.176758 291.915375,341.625732 
	C291.928375,337.133728 291.865295,332.641541 291.873108,328.149475 
	C291.883667,322.089233 294.070862,319.136261 298.578583,319.023193 
	C302.843109,318.916229 305.108154,321.254822 305.440125,327.543457 
	C305.824463,334.822998 305.529602,342.138428 305.529602,349.455505 
	C311.047150,349.455505 315.931976,349.455505 321.811798,349.455505 
	C320.768127,347.972565 320.127655,346.301880 319.511169,346.310699 
	C315.668701,346.365479 315.788452,343.731506 315.758270,341.219879 
	C315.698334,336.237122 315.658844,331.251587 315.759521,326.270203 
	C315.848969,321.844055 315.547516,317.607147 311.385254,313.895813 
M515.969604,314.829987 
	C514.646790,314.964966 513.243164,314.875000 512.028687,315.311432 
	C511.172089,315.619263 510.572235,316.641449 509.857758,317.344727 
	C510.541626,317.877502 511.223297,318.862457 511.909729,318.865784 
	C515.080627,318.881134 515.253174,321.036041 515.310913,323.273773 
	C515.469299,329.420105 515.453796,335.573273 515.736633,341.713165 
	C515.907104,345.413818 517.421631,348.617340 521.204407,349.873810 
	C525.574524,351.325378 529.976746,351.755646 533.841492,348.362671 
	C535.222351,347.150330 536.609558,345.945038 538.514099,344.282379 
	C538.749023,346.730499 538.886841,348.166870 539.029907,349.657715 
	C544.144958,349.657715 549.041748,349.657715 554.598328,349.657715 
	C553.996643,348.323425 553.580750,346.615112 553.173340,346.617126 
	C548.113342,346.641937 548.875488,343.069458 548.872375,339.962677 
	C548.862976,330.719299 548.868958,321.475952 548.868958,312.220642 
	C544.259460,313.304688 539.913330,314.266785 535.608093,315.386353 
	C534.664856,315.631653 533.867493,316.437897 533.002991,316.985840 
	C533.893433,317.658478 534.840332,318.269409 535.660400,319.019012 
	C536.751099,320.015900 538.561584,321.066437 538.636169,322.188751 
	C538.966309,327.156342 539.129517,332.189148 538.680725,337.137329 
	C538.321716,341.095123 535.372681,343.227203 531.438416,343.367920 
	C527.563721,343.506409 525.685852,341.125153 525.513306,337.468292 
	C525.294250,332.823944 525.261780,328.169769 525.204285,323.519135 
	C525.158203,319.794189 525.194946,316.068176 525.194946,312.005035 
	C522.090637,312.977600 519.439880,313.808044 515.969604,314.829987 
M227.542801,329.654999 
	C227.089386,321.782806 224.619431,315.036255 216.136703,312.899414 
	C207.914642,310.828278 199.791534,311.015198 193.603027,318.041260 
	C188.663498,323.649261 187.661514,335.603699 192.197266,342.525146 
	C194.283463,345.708649 198.045883,348.763306 201.649261,349.812866 
	C216.224716,354.058289 226.219574,346.308960 227.542801,329.654999 
M183.312378,295.482452 
	C177.027924,295.482452 170.743469,295.482452 163.193909,295.482452 
	C164.557602,297.067322 165.334351,298.722565 166.072540,298.705566 
	C170.781693,298.596954 171.001297,301.641235 170.997528,305.042267 
	C170.981873,319.195740 171.026291,333.349426 170.955902,347.502563 
	C170.940231,350.653168 170.683411,353.818726 170.294830,356.947235 
	C169.822617,360.749207 167.611572,361.660889 164.266342,360.039307 
	C163.147079,359.496704 162.096985,358.811462 160.495422,357.893402 
	C160.495422,360.863617 160.495422,363.232666 160.495422,367.015900 
	C164.621124,365.631958 168.617310,365.044312 171.755585,363.083588 
	C178.500153,358.869659 182.153992,352.485321 182.167267,344.327850 
	C182.188126,331.506470 182.144379,318.684906 182.192001,305.863647 
	C182.204956,302.377747 181.792892,298.515900 187.297516,298.707153 
	C187.940201,298.729492 188.645676,296.944977 189.975052,295.084015 
	C187.176102,295.268768 185.717453,295.365082 183.312378,295.482452 
M614.111389,346.304016 
	C613.263062,344.790497 611.760315,343.309662 611.682922,341.757660 
	C611.392883,335.944214 611.985779,330.065643 611.406738,324.295868 
	C611.082275,321.063141 609.907288,317.186646 607.714172,315.016174 
	C602.488892,309.844788 589.843689,311.410553 585.513733,317.419556 
	C584.611938,318.671112 585.319763,321.082458 585.285767,322.959351 
	C586.287964,322.498016 587.812256,322.302429 588.205017,321.530853 
	C590.273926,317.466766 593.755127,318.191833 596.832275,319.160736 
	C600.736084,320.389954 601.668030,323.635834 600.999268,327.560211 
	C598.373779,328.115173 595.909607,328.491882 593.534485,329.177277 
	C590.994263,329.910309 588.409424,330.683563 586.071655,331.882904 
	C580.990784,334.489563 579.352051,342.204590 582.631836,347.109497 
	C585.555603,351.481934 591.372192,352.010498 596.230042,348.354767 
	C597.648010,347.287628 599.085938,346.246887 600.959961,344.866028 
	C601.297302,346.933411 601.520874,348.303467 601.727600,349.570221 
	C604.345398,349.570221 606.656128,349.570251 608.966858,349.570251 
	C611.254639,349.570251 613.542358,349.570221 616.435913,349.570221 
	C615.855774,348.335480 615.420471,347.408997 614.111389,346.304016 
M729.003113,330.169037 
	C728.972351,320.671753 725.969177,315.743835 719.070496,313.870239 
	C711.788940,311.892731 701.372864,316.003601 697.743774,322.287292 
	C693.673340,329.335114 695.121033,342.132050 700.592224,347.465363 
	C706.043579,352.779327 717.698853,353.839325 724.774475,349.352997 
	C726.340271,348.360168 727.189026,346.236267 728.367981,344.633148 
	C712.843262,347.293182 706.235352,343.907867 706.375000,332.978241 
	C708.185608,332.978241 710.019836,333.131195 711.820435,332.949951 
	C717.504761,332.377838 723.176453,331.680542 729.003113,330.169037 
M116.938210,320.214172 
	C119.188370,320.214172 121.438530,320.214172 123.879433,320.214172 
	C123.879433,318.109039 123.879433,316.688599 123.879433,314.981262 
	C121.106438,314.981262 118.477234,314.981262 115.488029,314.981262 
	C115.723450,309.665558 115.946335,304.632721 116.200859,298.885498 
	C112.043213,300.535645 108.595467,301.904022 105.290276,303.215820 
	C105.474091,306.636292 106.342400,309.815430 105.591660,312.550110 
	C104.870796,315.175903 102.472176,317.341156 100.762550,319.777557 
	C102.264748,320.102386 103.782791,320.430634 105.447556,320.790649 
	C105.447556,328.090363 105.355324,335.074158 105.476860,342.054199 
	C105.573387,347.598236 108.367401,350.239624 114.277649,350.771179 
	C119.278671,351.220947 122.850143,348.404449 123.817574,343.186554 
	C120.553123,343.495575 116.035042,345.569122 115.621735,340.147980 
	C115.123901,333.618164 115.779686,327.000397 116.938210,320.214172 
M572.191833,299.108429 
	C572.191833,297.020599 572.191833,294.932739 572.191833,292.658112 
	C567.194824,293.597717 562.654480,294.387299 558.154053,295.361145 
	C557.407043,295.522766 556.834045,296.488586 556.180603,297.082794 
	C556.801453,297.679443 557.453796,298.820160 558.038086,298.786224 
	C562.536560,298.525085 562.144592,301.627319 562.146362,304.477600 
	C562.154053,316.630432 562.121826,328.783386 562.163574,340.936066 
	C562.173218,343.745605 562.260620,346.330048 558.348389,346.583252 
	C557.678284,346.626617 557.108215,348.215271 556.068909,349.690613 
	C564.052917,349.690613 570.977600,349.690613 578.996765,349.690613 
	C577.881287,348.216156 577.256226,346.651306 576.597229,346.636810 
	C571.711487,346.529694 572.173218,343.177032 572.179260,339.949738 
	C572.204285,326.631561 572.191040,313.313263 572.191833,299.108429 
M686.624878,321.921814 
	C687.481750,323.923004 688.338623,325.924194 689.195496,327.925385 
	C689.716431,327.738678 690.237366,327.551941 690.758301,327.365234 
	C691.161316,324.432159 691.402344,321.464935 692.011475,318.575317 
	C692.660461,315.496399 691.106506,314.624054 688.525269,313.840302 
	C681.858948,311.816162 676.605896,314.692169 671.322754,318.099213 
	C662.819580,323.582825 659.796753,334.538483 664.529968,343.303802 
	C668.757812,351.133545 679.677490,354.561188 688.480713,350.489471 
	C690.271484,349.661133 691.431458,347.469086 692.882263,345.905701 
	C680.910583,347.280365 675.852478,344.951660 673.572205,336.376801 
	C672.944336,334.015594 672.888428,331.449585 672.903625,328.979584 
	C672.957703,320.190765 678.048401,317.263702 686.624878,321.921814 
M503.243958,248.117493 
	C503.246613,245.294586 503.343811,242.466492 503.189606,239.652176 
	C503.147766,238.888153 502.346985,238.165726 501.894531,237.424179 
	C501.169434,237.930084 500.069550,238.280777 499.784576,238.968948 
	C498.588257,241.857620 497.635803,244.847305 496.295837,248.645218 
	C495.014893,245.008667 494.072784,242.049576 492.895935,239.186966 
	C492.590149,238.443146 491.620789,237.835632 490.816620,237.496353 
	C490.465759,237.348328 489.297729,238.023239 489.290558,238.342194 
	C489.187927,242.899689 489.220490,247.460236 489.220490,252.020035 
	C489.756073,252.023300 490.291626,252.026566 490.827209,252.029831 
	C491.108673,249.669800 491.390167,247.309784 491.671661,244.949768 
	C493.089111,246.562286 493.569763,248.288818 494.366852,249.854218 
	C494.805725,250.716141 495.776581,251.307205 496.507599,252.020386 
	C497.053406,251.297073 497.756042,250.643265 498.113586,249.836502 
	C498.945496,247.959396 499.611145,246.008591 500.758240,243.002747 
	C501.048676,246.884842 501.242676,249.478027 501.436676,252.071228 
	C501.873627,252.066559 502.310577,252.061874 502.747528,252.057205 
	C502.912079,251.036514 503.076630,250.015839 503.243958,248.117493 
M129.538559,349.346405 
	C132.551147,350.838898 135.403976,350.634888 137.548096,347.952271 
	C139.824066,345.104736 139.631195,341.977753 137.009628,339.486542 
	C134.375107,336.982971 131.101837,336.939697 128.560608,339.456696 
	C125.520576,342.467743 125.553169,345.879730 129.538559,349.346405 
M480.713623,245.332596 
	C480.834106,247.585587 480.954590,249.838577 481.075073,252.091568 
	C481.603851,252.085800 482.132660,252.080048 482.661438,252.074295 
	C482.661438,248.116287 482.661438,244.158295 482.661438,240.372467 
	C484.856842,239.766907 486.403442,239.340302 487.950012,238.913712 
	C487.888458,238.575317 487.826935,238.236923 487.765411,237.898529 
	C483.784454,237.898529 479.803497,237.898529 475.822540,237.898529 
	C475.778351,238.258255 475.734131,238.617981 475.689941,238.977707 
	C477.306793,239.416687 478.923645,239.855667 480.713593,240.341629 
	C480.713593,241.757065 480.713593,243.067856 480.713623,245.332596 
z"/>
<path fill="#040303" opacity="1.000000" stroke="none" 
	d="
M465.822662,242.006912 
	C467.040802,245.006454 468.258942,248.006012 469.814423,251.836182 
	C466.850708,251.983551 464.937103,252.159058 463.023346,252.161331 
	C445.368805,252.182312 427.712158,252.027374 410.061249,252.280167 
	C405.876923,252.340103 403.652618,251.235367 402.721405,247.073166 
	C402.116364,244.368820 400.787659,241.826385 399.815155,239.294708 
	C393.656006,239.294708 387.706238,239.294708 381.539581,239.294708 
	C381.201416,240.058777 380.766296,240.914230 380.435791,241.808350 
	C376.603882,252.175934 376.608032,252.176559 365.371521,252.175247 
	C349.215942,252.173370 333.060272,252.199326 316.904907,252.137070 
	C314.987610,252.129684 312.185913,253.154800 312.843384,249.189941 
	C313.595886,247.927597 313.786224,246.935745 313.976593,245.943909 
	C316.227051,240.163361 318.477509,234.382812 321.237366,228.256622 
	C322.132385,226.537369 322.518005,225.163757 322.903625,223.790131 
	C323.030334,223.186935 323.157013,222.583755 323.880402,222.207947 
	C325.110718,222.782745 325.744293,223.130173 326.112183,223.462830 
	C325.686279,223.399734 325.526062,223.351425 325.353577,223.680008 
	C325.698456,224.385223 326.055603,224.713531 326.363281,225.427628 
	C324.443329,230.552185 322.572937,235.290985 320.533173,240.158020 
	C320.164154,240.502472 320.047943,240.756836 319.967896,241.425293 
	C319.288422,243.638611 318.656311,245.475967 318.041779,247.262222 
	C318.602844,247.586487 318.868164,247.873672 319.134460,247.874588 
	C336.430176,247.933487 353.726196,248.009277 371.021240,247.914429 
	C372.143738,247.908264 373.740509,246.827805 374.278992,245.805771 
	C375.461700,243.560974 376.107300,241.033234 376.996094,238.554382 
	C319.671234,227.205093 299.116577,169.681610 321.631775,127.814438 
	C321.883850,127.555069 321.980988,127.375320 322.127319,126.831512 
	C323.693848,124.378548 325.172363,122.268623 326.751038,120.450562 
	C327.200073,120.908134 327.538574,121.121895 327.906128,121.201447 
	C327.985229,121.218567 328.169189,120.751106 328.304840,120.506874 
	C327.761230,120.353447 327.217590,120.200020 326.772491,119.705376 
	C327.718445,118.227081 328.565887,117.090004 329.523010,115.887238 
	C329.768951,115.715431 329.873291,115.584015 330.170624,115.121872 
	C331.159058,113.811249 331.922607,112.806030 332.720154,111.687683 
	C332.739349,111.318192 332.608368,111.140762 332.116547,110.793900 
	C327.234772,105.907501 322.597565,101.269478 317.895111,96.511749 
	C317.720306,96.242142 317.581268,96.128250 317.122070,95.818542 
	C315.955505,96.550926 314.597839,97.381653 314.287292,98.502487 
	C312.958649,103.297897 311.938843,108.178856 310.598907,113.233353 
	C310.324280,113.817108 310.257141,114.196136 310.237122,114.915382 
	C309.936737,116.542572 309.589172,117.829536 308.826477,119.082619 
	C306.286499,119.612656 304.161713,120.176582 301.573792,120.830048 
	C294.496826,120.986320 287.882935,121.053040 281.099609,121.093231 
	C280.700897,121.064186 280.481995,121.110703 279.992065,121.366806 
	C279.726746,122.663361 279.465332,123.892059 279.808258,124.918961 
	C281.134979,128.891663 282.654266,132.800018 284.138306,136.984253 
	C284.396332,137.483322 284.617920,137.730499 284.939697,138.183716 
	C285.039886,138.389771 285.063354,138.847412 285.098816,139.068237 
	C285.242096,139.581879 285.432953,139.802979 285.884430,140.280670 
	C287.425262,144.255630 288.788513,147.902283 290.162720,151.826263 
	C290.388000,152.391327 290.602295,152.679047 290.958862,153.332336 
	C290.155670,158.979996 286.114105,161.007202 281.750000,162.316437 
	C281.536804,161.664368 281.272491,161.337402 280.728363,160.848358 
	C280.246857,160.610275 280.045135,160.534256 279.843414,160.458221 
	C281.705872,158.715118 283.568329,156.972015 286.008118,154.946167 
	C286.448120,153.781036 286.310822,152.898636 286.173523,152.016235 
	C282.377258,142.634888 278.581024,133.253540 275.278748,123.681824 
	C275.964508,123.314438 276.156311,123.137444 276.348114,122.960449 
	C275.993347,122.992165 275.638550,123.023872 275.283783,123.055580 
	C274.878845,122.813667 274.473907,122.571754 273.968262,121.609055 
	C273.734070,120.697052 273.600586,120.505844 273.467102,120.314636 
	C272.947937,116.355156 276.003235,117.235474 277.992249,117.210579 
	C287.106201,117.096527 296.222412,117.160431 305.482086,117.160431 
	C306.401520,113.478577 307.115540,110.619469 308.225342,107.134293 
	C308.693024,105.845657 308.764862,105.183083 308.836670,104.520515 
	C309.778168,99.876877 310.727142,95.234741 311.658752,90.589119 
	C312.433716,86.724648 314.300903,87.011726 316.941406,89.829330 
	C317.462555,90.606667 317.739014,90.796028 318.015472,90.985382 
	C318.015472,90.985382 318.000000,91.000000 318.101501,91.223267 
	C318.402374,91.735703 318.673584,91.918030 319.016663,91.993515 
	C324.159943,97.646202 329.303253,103.298904 334.760315,109.296471 
	C338.396637,106.392059 341.055756,104.479927 343.423035,102.256973 
	C344.201874,101.525627 344.610901,99.964172 344.535431,98.825592 
	C343.578583,84.383698 342.528534,69.947746 341.443420,55.514698 
	C341.022675,49.918499 341.789703,49.287235 347.163818,51.314472 
	C353.670929,53.769081 360.156586,56.280533 367.143585,58.955799 
	C373.429474,49.162434 379.674835,39.432785 385.918121,29.701786 
	C386.097778,29.421751 386.245026,29.120983 386.423706,28.840286 
	C390.408051,22.581331 390.847900,22.584803 394.849640,28.846188 
	C401.196838,38.777416 407.550568,48.704464 414.106445,58.953678 
	C421.219879,56.309196 428.148651,53.699821 435.102692,51.159641 
	C439.958740,49.385799 440.650146,49.940434 440.232635,55.039310 
	C439.227692,67.312355 438.684967,79.647392 437.049591,91.835846 
	C436.024872,99.473000 437.888458,104.699188 445.499115,107.802856 
	C446.225708,107.119606 447.275635,106.132309 449.021729,105.075516 
	C450.492493,104.047279 451.267090,103.088554 452.041687,102.129829 
	C452.550171,101.511765 453.058624,100.893684 454.203705,100.147736 
	C455.576691,99.054947 456.313049,98.090019 457.049408,97.125092 
	C457.049408,97.125084 457.040436,97.040962 457.437653,97.032227 
	C458.570496,96.058929 459.306122,95.094376 460.041687,94.129807 
	C460.550110,93.511726 461.058533,92.893654 462.203186,92.147751 
	C463.572723,91.056412 464.306091,90.092903 465.039429,89.129395 
	C468.132538,86.070122 469.197510,88.129173 469.792755,91.067451 
	C470.816345,96.120667 471.763428,101.189377 472.576355,106.892029 
	C472.564789,107.870392 472.719574,108.208290 472.874359,108.546188 
	C473.216461,109.831306 473.558563,111.116417 473.717285,112.808273 
	C473.661316,113.476013 473.788696,113.737000 473.916077,113.998001 
	C475.177795,114.715240 476.407013,115.983871 477.706512,116.060516 
	C486.339142,116.569633 494.986938,116.818794 503.629456,117.162346 
	C508.344116,117.349762 508.952576,118.220230 507.069031,122.555809 
	C503.828705,130.014603 500.511841,137.440918 497.130707,144.836823 
	C496.717621,145.740387 495.712067,146.373108 494.094238,147.068771 
	C493.411011,145.307343 493.295074,143.487335 493.883820,141.934509 
	C495.172852,138.534805 496.819366,135.270615 498.483887,131.834488 
	C498.841705,131.516785 498.956604,131.277740 499.025238,130.644379 
	C500.037048,128.191010 501.016205,126.093971 502.332886,123.991867 
	C503.282349,123.668648 503.894287,123.350502 504.506256,123.032364 
	C503.554871,122.391045 502.603485,121.749718 501.209747,121.170982 
	C495.829651,121.071617 490.891876,120.909660 485.706116,120.503784 
	C481.303040,120.173981 477.148010,120.088097 472.717834,119.981934 
	C472.280670,119.874496 472.118683,119.787323 471.868896,119.550224 
	C471.625702,119.217911 471.432556,119.094757 471.027344,118.757553 
	C470.826385,117.851013 470.799744,117.217751 470.783813,116.288101 
	C470.586975,115.669868 470.379425,115.348022 470.068298,114.617378 
	C468.925903,108.283928 467.887085,102.359276 466.833252,96.145332 
	C466.582733,95.565079 466.347260,95.274109 465.768158,95.030472 
	C459.932251,100.379135 454.440002,105.680473 448.654968,111.024933 
	C448.555328,111.717415 448.748505,112.366760 449.232758,113.182892 
	C485.468872,153.574356 469.790619,224.927063 405.091064,238.624268 
	C405.862885,247.221222 406.647614,247.989166 414.611572,247.994797 
	C430.747009,248.006210 446.882416,248.022827 463.183228,248.253662 
	C463.772034,248.404861 464.195465,248.339676 464.618896,248.274506 
	C464.121521,247.523376 463.624146,246.772263 462.949341,245.698273 
	C461.180817,241.252701 459.589752,237.130020 458.222839,232.841736 
	C458.006012,232.116074 457.565002,231.556015 456.929321,230.687225 
	C455.503296,227.329559 454.483002,224.172409 452.989258,221.257889 
	C450.921570,217.223373 451.097595,214.127258 455.812347,212.578888 
	C456.311493,213.996368 456.668335,215.021729 457.025146,216.047104 
	C457.130035,217.542145 456.891785,219.166428 457.397919,220.510345 
	C459.878479,227.096863 462.557190,233.608765 465.009583,240.620163 
	C465.176453,241.397827 465.499542,241.702377 465.822662,242.006912 
M452.931854,139.780853 
	C433.351929,146.655411 413.772034,153.529968 393.215363,160.747467 
	C401.210602,140.455582 408.716370,121.405891 416.222168,102.356194 
	C415.885925,102.107964 415.549683,101.859734 415.213409,101.611504 
	C407.002686,108.721855 398.791962,115.832199 390.549438,122.970070 
	C381.924805,115.642204 373.488892,108.474663 365.052948,101.307129 
	C364.857544,101.649445 364.662170,101.991760 364.466797,102.334068 
	C372.112274,121.458687 379.757782,140.583313 387.804993,160.712784 
	C366.919891,153.966873 347.580139,146.361740 327.736145,140.389450 
	C327.586792,140.822754 327.437408,141.256058 327.288025,141.689346 
	C334.847198,148.908768 342.406342,156.128174 350.092834,163.469208 
	C342.087463,172.270935 334.197815,180.945419 325.269196,190.762222 
	C346.691040,182.349884 366.756744,174.470093 387.829742,166.194748 
	C379.506409,187.077560 371.674347,206.727722 363.842316,226.377869 
	C364.126282,226.517136 364.410248,226.656403 364.694244,226.795670 
	C373.261932,219.209457 381.829620,211.623245 390.512604,203.934982 
	C399.008423,211.408920 407.315277,218.716599 415.622101,226.024277 
	C415.951935,225.829407 416.281769,225.634521 416.611603,225.439651 
	C408.958984,206.023911 401.306396,186.608170 393.266357,166.209503 
	C413.826172,174.270859 433.184265,181.861008 452.542328,189.451172 
	C452.828979,189.025864 453.115662,188.600555 453.402313,188.175247 
	C445.985321,179.997192 438.568298,171.819138 430.601196,163.034531 
	C438.475250,155.374634 446.307037,147.755859 454.701782,140.000641 
	C454.729248,139.768494 454.756714,139.536362 454.784180,139.304214 
	C454.414185,139.428665 454.044159,139.553131 452.931854,139.780853 
M380.189270,46.706753 
	C377.313629,51.190887 374.224548,55.555798 371.631561,60.197815 
	C369.646118,63.752182 367.455139,64.041908 363.934387,62.504707 
	C358.247864,60.021885 352.345795,58.032829 345.799622,55.557228 
	C346.869965,70.347206 347.868805,84.149345 348.911865,98.562660 
	C377.202911,83.725319 404.736328,83.842957 432.466370,98.773857 
	C433.672516,83.827553 434.787079,70.016075 435.954163,55.553936 
	C431.290527,57.233448 427.411804,58.624607 423.537079,60.026756 
	C411.993835,64.203918 412.027863,64.184715 405.426910,53.627750 
	C400.681030,46.037632 395.831024,38.512623 390.693481,30.433304 
	C387.053650,36.098366 383.833740,41.109852 380.189270,46.706753 
z"/>
<path fill="#D9011A" opacity="1.000000" stroke="none" 
	d="
M498.319885,131.951096 
	C496.819366,135.270615 495.172852,138.534805 493.883820,141.934509 
	C493.295074,143.487335 493.411011,145.307343 493.767639,147.109634 
	C494.327911,147.213089 494.377899,147.521652 493.984680,147.278885 
	C489.706268,148.407013 488.853790,151.352921 489.445984,155.188477 
	C489.565308,155.537857 489.730164,155.611389 490.166351,155.838898 
	C494.620941,159.740692 498.862244,163.358551 503.169006,167.201385 
	C503.411957,167.737381 503.677704,167.865784 504.164185,168.045609 
	C504.742432,168.555954 505.188141,168.832291 505.765900,169.452408 
	C505.783478,170.494263 505.668945,171.192337 505.266144,172.030106 
	C502.106262,174.698196 499.234619,177.226608 496.031494,179.747833 
	C482.356659,190.556015 469.013336,201.371399 455.670013,212.186798 
	C451.097595,214.127258 450.921570,217.223373 452.989258,221.257889 
	C454.483002,224.172409 455.503296,227.329559 456.910522,230.982330 
	C457.390442,232.059875 457.694550,232.533615 457.998657,233.007355 
	C459.589752,237.130020 461.180817,241.252701 462.931244,246.037231 
	C463.066345,247.145142 463.042114,247.591232 463.017883,248.037292 
	C446.882416,248.022827 430.747009,248.006210 414.611572,247.994797 
	C406.647614,247.989166 405.862885,247.221222 405.091064,238.624268 
	C469.790619,224.927063 485.468872,153.574356 449.221130,112.843933 
	C448.928192,111.886055 448.937958,111.433937 448.947723,110.981812 
	C454.440002,105.680473 459.932251,100.379135 465.810181,95.307045 
	C466.413300,95.835739 466.630798,96.135178 466.848297,96.434616 
	C467.887085,102.359276 468.925903,108.283928 470.054901,114.913956 
	C470.354431,115.941048 470.563751,116.262764 470.773071,116.584488 
	C470.799744,117.217751 470.826385,117.851013 471.053345,118.961189 
	C471.253662,119.438103 471.546997,119.725105 471.546997,119.725105 
	C471.546997,119.725105 471.956726,119.700157 471.956726,119.700157 
	C472.118683,119.787323 472.280670,119.874496 473.051392,120.212112 
	C477.758148,120.557610 481.856140,120.652664 485.954132,120.747711 
	C490.891876,120.909660 495.829651,121.071617 501.353607,121.513031 
	C501.958344,122.527306 501.976868,123.262123 501.995392,123.996941 
	C501.016205,126.093971 500.037048,128.191010 498.828766,130.732849 
	C498.349213,131.378601 498.255951,131.636414 498.319885,131.951096 
z"/>
<path fill="#0E0E0E" opacity="1.000000" stroke="none" 
	d="
M438.928711,316.881958 
	C442.520782,314.222900 445.448151,311.350159 450.257660,311.885468 
	C456.482697,312.578369 460.039307,315.786072 460.170837,322.089508 
	C460.295898,328.083405 460.162476,334.082184 460.211212,340.078278 
	C460.235168,343.028473 459.731384,346.355225 464.445190,346.334839 
	C465.005951,346.332397 465.574158,348.050018 466.430664,349.445801 
	C460.557343,349.445801 455.640411,349.445801 450.098206,349.445801 
	C450.098206,341.462097 450.335175,333.513428 449.938110,325.596558 
	C449.833710,323.515045 448.208496,320.561401 446.477936,319.773438 
	C444.705688,318.966431 441.753052,319.917206 439.698364,320.897675 
	C438.577850,321.432343 437.717529,323.601501 437.655518,325.072113 
	C437.417145,330.724792 437.545746,336.393097 437.543793,342.055573 
	C437.542969,344.516266 438.236633,346.154114 441.221924,346.247803 
	C442.117065,346.275848 442.963562,347.854736 444.608734,349.499176 
	C436.228577,349.499176 429.470398,349.499176 421.572998,349.499176 
	C422.439270,348.189392 423.101837,346.301453 423.793945,346.290527 
	C427.295837,346.235321 427.392456,343.911835 427.415527,341.516296 
	C427.466827,336.186829 427.502899,330.854462 427.382080,325.526978 
	C427.297180,321.784271 425.857147,319.044830 421.513458,319.009430 
	C417.271332,318.974823 414.693054,321.324127 414.621948,325.718964 
	C414.533112,331.207794 414.487885,336.715973 414.892029,342.181152 
	C414.994385,343.565674 416.859344,344.830261 417.940125,346.128540 
	C418.723816,347.070038 419.549957,347.976227 420.883301,349.498993 
	C412.931122,349.498993 406.323944,349.498993 398.557831,349.498993 
	C399.461823,348.164917 400.171478,346.254791 400.844116,346.267700 
	C404.661102,346.341125 404.720459,343.698303 404.765900,341.216919 
	C404.875671,335.222656 404.805817,329.224640 404.774139,323.228333 
	C404.759949,320.541229 404.286987,318.227295 400.812469,318.044495 
	C400.180817,318.011261 399.601318,316.986511 398.997742,316.419495 
	C399.627441,315.879272 400.180878,315.024719 400.899353,314.850372 
	C405.221527,313.801666 409.581543,312.908997 414.203033,311.904510 
	C414.423676,313.783020 414.610535,315.374084 414.894257,317.789581 
	C416.529114,316.618866 417.796448,315.760529 419.011169,314.833221 
	C425.106384,310.180267 431.035553,310.759003 436.128204,316.391052 
	C436.623260,316.938538 437.788116,316.880371 438.928711,316.881958 
z"/>
<path fill="#0C0C0C" opacity="1.000000" stroke="none" 
	d="
M266.952881,349.200897 
	C264.219116,349.374359 261.949280,349.551239 258.986145,349.782135 
	C258.986145,342.207642 259.112976,335.097046 258.948242,327.993195 
	C258.801819,321.680267 256.485382,318.886536 252.015259,319.022583 
	C247.600052,319.156921 245.197327,322.346130 245.190521,328.154266 
	C245.185257,332.649261 245.145370,337.147034 245.287064,341.638275 
	C245.362320,344.023712 245.687439,346.300568 249.128220,346.260254 
	C250.025223,346.249756 250.940323,347.783203 252.837982,349.508392 
	C244.145676,349.508392 237.256058,349.508392 228.927490,349.508392 
	C230.302795,347.961578 231.110764,347.048096 231.923996,346.139313 
	C233.052338,344.878448 235.148071,343.635376 235.166931,342.360077 
	C235.366211,328.884735 235.243103,315.404449 235.173935,301.925690 
	C235.169815,301.123840 234.867233,300.323486 234.670349,299.360016 
	C233.791412,299.173126 232.911530,299.175964 232.245804,298.799805 
	C231.256744,298.240997 230.419220,297.414062 229.517181,296.701263 
	C230.407013,296.149597 231.232224,295.318054 232.197937,295.095062 
	C236.233276,294.163361 240.310822,293.414368 245.051163,292.462128 
	C245.051163,300.642914 245.051163,308.969208 245.051163,318.608643 
	C247.662750,316.607544 249.215302,315.489410 250.688614,314.275146 
	C254.657562,311.003998 259.055878,311.237122 263.363525,313.098022 
	C267.677124,314.961456 269.119965,318.724701 269.046356,323.281036 
	C268.952209,329.107574 268.987457,334.937592 269.063812,340.764832 
	C269.098328,343.399200 268.801331,346.329956 272.974396,346.272034 
	C273.586578,346.263489 274.221741,347.905701 275.571930,349.804840 
	C271.920990,349.535980 269.668884,349.370148 266.952881,349.200897 
z"/>
<path fill="#0A0A0A" opacity="1.000000" stroke="none" 
	d="
M352.724731,349.532410 
	C348.290222,349.562286 344.320953,349.562286 339.309204,349.562286 
	C339.946045,348.207581 340.352264,346.216766 341.009460,346.130127 
	C344.957458,345.609802 345.905151,342.560974 347.093842,339.651459 
	C353.113373,324.917450 359.116699,310.176819 365.177979,295.310333 
	C369.229248,294.071869 371.445435,295.325623 373.179840,299.652740 
	C378.792999,313.656708 384.853241,327.486176 391.017273,341.259338 
	C391.880798,343.188812 394.336578,344.378479 395.958832,346.006744 
	C396.808472,346.859558 397.448608,347.921173 398.650116,349.502930 
	C389.402283,349.502930 381.481354,349.502930 373.551819,349.502930 
	C373.340668,347.313782 373.340668,347.313782 378.879578,344.565369 
	C378.849182,344.238373 378.880585,343.889160 378.774963,343.588013 
	C375.067749,333.017242 375.065948,333.017944 363.848724,333.018677 
	C361.029510,333.018890 358.210327,333.018707 355.171539,333.018707 
	C353.913361,336.883728 352.700958,340.608093 351.588013,344.026855 
	C354.141724,345.550781 356.237976,346.801697 358.334259,348.052643 
	C358.071594,348.535950 357.808899,349.019226 357.546234,349.502533 
	C356.094147,349.502533 354.642029,349.502533 352.724731,349.532410 
M370.648895,323.006805 
	C368.811920,318.629028 366.974945,314.251221 364.745636,308.938385 
	C362.001923,315.964996 359.656036,321.972778 357.207672,328.243042 
	C362.559357,328.243042 367.274658,328.243042 372.457550,328.243042 
	C371.856659,326.473206 371.396240,325.117004 370.648895,323.006805 
z"/>
<path fill="#0A0A0A" opacity="1.000000" stroke="none" 
	d="
M90.091003,319.799255 
	C100.270767,324.789459 99.106133,341.757233 87.842903,347.498810 
	C77.626549,352.706696 67.363403,351.469757 57.330742,347.028076 
	C57.628323,343.065125 57.781445,339.585022 58.213600,336.139984 
	C58.344978,335.092651 59.246166,334.141876 59.794769,333.146881 
	C60.479996,334.180786 61.639866,335.158356 61.770348,336.258057 
	C62.422592,341.755188 65.785126,344.956024 72.357758,345.941833 
	C78.637222,346.883667 84.185936,344.194397 86.039734,339.310638 
	C88.102936,333.875214 85.866631,329.200806 80.236259,327.666016 
	C77.363144,326.882843 74.364243,326.565552 71.426872,326.012848 
	C62.848244,324.398651 57.910629,319.308350 57.803734,311.987823 
	C57.670483,302.862427 62.091324,296.979431 70.764061,295.030090 
	C78.594467,293.270142 86.236053,293.920563 93.579636,297.079346 
	C93.182060,308.919800 93.182060,308.919800 89.561798,309.285736 
	C87.587654,300.631744 82.469536,297.074829 74.780937,299.265320 
	C70.449051,300.499451 67.342857,303.211639 67.239517,308.052185 
	C67.132439,313.068237 70.688095,314.772949 74.873238,315.796356 
	C79.848450,317.012878 84.792961,318.354980 90.091003,319.799255 
z"/>
<path fill="#090909" opacity="1.000000" stroke="none" 
	d="
M465.409912,298.565491 
	C465.696686,297.275604 466.151459,295.530487 467.001373,295.310303 
	C471.276886,294.202454 475.655609,293.492798 480.510925,292.543030 
	C480.510925,300.793365 480.510925,309.011383 480.510925,316.910248 
	C484.826904,315.172394 488.684753,312.642517 492.777527,312.176727 
	C500.986969,311.242401 507.112518,317.020416 507.927368,325.253265 
	C509.500732,341.149414 492.452881,354.355957 477.389191,349.141266 
	C475.450775,348.470215 472.905701,349.551636 470.168915,349.877502 
	C470.382172,345.438354 470.740540,341.022308 470.777588,336.603577 
	C470.868286,325.785889 470.718597,314.965790 470.863220,304.149261 
	C470.913025,300.423615 469.785828,298.374329 465.409912,298.565491 
M492.086670,320.162292 
	C483.651062,318.065979 480.855682,320.227753 480.837189,328.869171 
	C480.831177,331.682922 481.095245,334.525879 480.779327,337.303558 
	C480.316132,341.375977 482.316101,343.608093 485.815857,344.675385 
	C489.453979,345.784882 492.710358,344.956909 495.024017,341.702240 
	C498.529144,336.771545 499.465759,324.508545 492.086670,320.162292 
z"/>
<path fill="#0A0A0A" opacity="1.000000" stroke="none" 
	d="
M633.600098,345.189941 
	C635.718079,346.366852 637.569702,347.189514 639.421387,348.012177 
	C639.235107,348.525146 639.048767,349.038086 638.862488,349.551025 
	C631.838257,349.551025 624.813965,349.551025 616.604065,349.551025 
	C617.957397,348.089508 618.677673,346.591705 619.552612,346.495087 
	C622.832336,346.132874 623.024719,344.059570 622.999878,341.537659 
	C622.944092,335.874908 622.953674,330.211090 622.993225,324.548065 
	C623.014648,321.477692 623.377258,318.310425 618.860474,318.098572 
	C618.389648,318.076477 617.609253,317.023773 617.625427,316.468262 
	C617.640503,315.948486 618.449097,315.136383 619.036377,314.998810 
	C623.520447,313.948151 628.035889,313.031219 632.951050,311.985565 
	C632.951050,313.974274 632.951050,315.710846 632.951050,318.190186 
	C635.249390,316.544312 636.932800,315.293671 638.661194,314.108795 
	C646.394409,308.807434 655.877441,313.031006 656.685730,322.447388 
	C657.210876,328.566315 656.879456,334.762756 656.843567,340.923981 
	C656.827332,343.707611 656.619873,346.355957 660.607788,346.577881 
	C661.291260,346.615906 661.888428,348.204010 662.972351,349.687836 
	C657.127014,349.687836 652.348755,349.687836 646.801331,349.687836 
	C646.801331,344.028595 646.880188,338.305084 646.767700,332.585327 
	C646.712402,329.770020 646.555237,326.909851 645.991394,324.162964 
	C645.251648,320.559509 642.632385,318.708282 639.047607,319.175751 
	C635.656189,319.617981 633.080200,321.588928 633.059570,325.382904 
	C633.024353,331.866486 633.229553,338.351349 633.600098,345.189941 
z"/>
<path fill="#0B0B0B" opacity="1.000000" stroke="none" 
	d="
M311.696228,314.125061 
	C315.547516,317.607147 315.848969,321.844055 315.759521,326.270203 
	C315.658844,331.251587 315.698334,336.237122 315.758270,341.219879 
	C315.788452,343.731506 315.668701,346.365479 319.511169,346.310699 
	C320.127655,346.301880 320.768127,347.972565 321.811798,349.455505 
	C315.931976,349.455505 311.047150,349.455505 305.529602,349.455505 
	C305.529602,342.138428 305.824463,334.822998 305.440125,327.543457 
	C305.108154,321.254822 302.843109,318.916229 298.578583,319.023193 
	C294.070862,319.136261 291.883667,322.089233 291.873108,328.149475 
	C291.865295,332.641541 291.928375,337.133728 291.915375,341.625732 
	C291.907990,344.176758 292.221649,346.201233 295.602905,346.258514 
	C296.566345,346.274841 297.504730,347.773895 298.454620,348.593018 
	C298.210602,348.972839 297.966614,349.352661 297.722595,349.732483 
	C294.117767,349.550690 290.512909,349.227661 286.908051,349.227692 
	C283.452850,349.227722 279.997620,349.563080 275.155212,349.826508 
	C276.588501,347.996216 277.322937,346.275604 278.029572,346.286957 
	C281.733978,346.346466 281.980286,344.025726 281.977325,341.334106 
	C281.970520,335.177551 281.954071,329.020905 281.976868,322.864441 
	C281.986481,320.265411 281.436279,318.265167 278.248535,318.074463 
	C277.527252,318.031311 276.858215,317.114777 276.165131,316.600281 
	C276.938171,315.980774 277.625153,315.020569 278.498962,314.799774 
	C282.661652,313.747986 286.875153,312.897125 291.496338,311.881165 
	C291.699188,313.802765 291.881287,315.527618 292.152100,318.092804 
	C297.945770,312.921631 303.950928,309.297974 311.696228,314.125061 
z"/>
<path fill="#0C0C0C" opacity="1.000000" stroke="none" 
	d="
M516.379395,314.734253 
	C519.439880,313.808044 522.090637,312.977600 525.194946,312.005035 
	C525.194946,316.068176 525.158203,319.794189 525.204285,323.519135 
	C525.261780,328.169769 525.294250,332.823944 525.513306,337.468292 
	C525.685852,341.125153 527.563721,343.506409 531.438416,343.367920 
	C535.372681,343.227203 538.321716,341.095123 538.680725,337.137329 
	C539.129517,332.189148 538.966309,327.156342 538.636169,322.188751 
	C538.561584,321.066437 536.751099,320.015900 535.660400,319.019012 
	C534.840332,318.269409 533.893433,317.658478 533.002991,316.985840 
	C533.867493,316.437897 534.664856,315.631653 535.608093,315.386353 
	C539.913330,314.266785 544.259460,313.304688 548.868958,312.220642 
	C548.868958,321.475952 548.862976,330.719299 548.872375,339.962677 
	C548.875488,343.069458 548.113342,346.641937 553.173340,346.617126 
	C553.580750,346.615112 553.996643,348.323425 554.598328,349.657715 
	C549.041748,349.657715 544.144958,349.657715 539.029907,349.657715 
	C538.886841,348.166870 538.749023,346.730499 538.514099,344.282379 
	C536.609558,345.945038 535.222351,347.150330 533.841492,348.362671 
	C529.976746,351.755646 525.574524,351.325378 521.204407,349.873810 
	C517.421631,348.617340 515.907104,345.413818 515.736633,341.713165 
	C515.453796,335.573273 515.469299,329.420105 515.310913,323.273773 
	C515.253174,321.036041 515.080627,318.881134 511.909729,318.865784 
	C511.223297,318.862457 510.541626,317.877502 509.857727,317.344727 
	C510.572235,316.641449 511.172089,315.619263 512.028687,315.311432 
	C513.243164,314.875000 514.646790,314.964966 516.379395,314.734253 
z"/>
<path fill="#0B0B0B" opacity="1.000000" stroke="none" 
	d="
M227.543365,330.077271 
	C226.219574,346.308960 216.224716,354.058289 201.649261,349.812866 
	C198.045883,348.763306 194.283463,345.708649 192.197266,342.525146 
	C187.661514,335.603699 188.663498,323.649261 193.603027,318.041260 
	C199.791534,311.015198 207.914642,310.828278 216.136703,312.899414 
	C224.619431,315.036255 227.089386,321.782806 227.543365,330.077271 
M201.418640,321.478638 
	C201.733215,328.179688 201.505463,334.977753 202.677032,341.525452 
	C203.051895,343.620453 207.243073,346.539246 209.484772,346.371002 
	C211.738556,346.201874 215.303024,342.827057 215.547379,340.560944 
	C216.191925,334.583496 215.903000,328.343994 214.821289,322.421509 
	C214.390869,320.064941 211.118530,317.039276 208.721954,316.600250 
	C206.750244,316.239075 204.160904,319.249390 201.418640,321.478638 
z"/>
<path fill="#050505" opacity="1.000000" stroke="none" 
	d="
M183.785583,295.471924 
	C185.717453,295.365082 187.176102,295.268768 189.975052,295.084015 
	C188.645676,296.944977 187.940201,298.729492 187.297516,298.707153 
	C181.792892,298.515900 182.204956,302.377747 182.192001,305.863647 
	C182.144379,318.684906 182.188126,331.506470 182.167267,344.327850 
	C182.153992,352.485321 178.500153,358.869659 171.755585,363.083588 
	C168.617310,365.044312 164.621124,365.631958 160.495422,367.015900 
	C160.495422,363.232666 160.495422,360.863617 160.495422,357.893402 
	C162.096985,358.811462 163.147079,359.496704 164.266342,360.039307 
	C167.611572,361.660889 169.822617,360.749207 170.294830,356.947235 
	C170.683411,353.818726 170.940231,350.653168 170.955902,347.502563 
	C171.026291,333.349426 170.981873,319.195740 170.997528,305.042267 
	C171.001297,301.641235 170.781693,298.596954 166.072540,298.705566 
	C165.334351,298.722565 164.557602,297.067322 163.193909,295.482452 
	C170.743469,295.482452 177.027924,295.482452 183.785583,295.471924 
z"/>
<path fill="#0F0F0F" opacity="1.000000" stroke="none" 
	d="
M614.548279,346.393280 
	C615.420471,347.408997 615.855774,348.335480 616.435913,349.570221 
	C613.542358,349.570221 611.254639,349.570251 608.966858,349.570251 
	C606.656128,349.570251 604.345398,349.570221 601.727600,349.570221 
	C601.520874,348.303467 601.297302,346.933411 600.959961,344.866028 
	C599.085938,346.246887 597.648010,347.287628 596.230042,348.354767 
	C591.372192,352.010498 585.555603,351.481934 582.631836,347.109497 
	C579.352051,342.204590 580.990784,334.489563 586.071655,331.882904 
	C588.409424,330.683563 590.994263,329.910309 593.534485,329.177277 
	C595.909607,328.491882 598.373779,328.115173 600.999268,327.560211 
	C601.668030,323.635834 600.736084,320.389954 596.832275,319.160736 
	C593.755127,318.191833 590.273926,317.466766 588.205017,321.530853 
	C587.812256,322.302429 586.287964,322.498016 585.285767,322.959351 
	C585.319763,321.082458 584.611938,318.671112 585.513733,317.419556 
	C589.843689,311.410553 602.488892,309.844788 607.714172,315.016174 
	C609.907288,317.186646 611.082275,321.063141 611.406738,324.295868 
	C611.985779,330.065643 611.392883,335.944214 611.682922,341.757660 
	C611.760315,343.309662 613.263062,344.790497 614.548279,346.393280 
M598.069641,332.068726 
	C596.694153,332.610138 595.222961,332.987762 593.961792,333.724854 
	C590.666443,335.650787 589.982422,338.672760 591.802307,341.759918 
	C593.728516,345.027496 596.576172,343.789551 599.101929,342.260345 
	C601.564392,340.769379 602.642151,333.791107 600.708740,331.687927 
	C600.472778,331.431274 599.524658,331.829346 598.069641,332.068726 
z"/>
<path fill="#090909" opacity="1.000000" stroke="none" 
	d="
M728.928101,330.600372 
	C723.176453,331.680542 717.504761,332.377838 711.820435,332.949951 
	C710.019836,333.131195 708.185608,332.978241 706.375000,332.978241 
	C706.235352,343.907867 712.843262,347.293182 728.367981,344.633148 
	C727.189026,346.236267 726.340271,348.360168 724.774475,349.352997 
	C717.698853,353.839325 706.043579,352.779327 700.592224,347.465363 
	C695.121033,342.132050 693.673340,329.335114 697.743774,322.287292 
	C701.372864,316.003601 711.788940,311.892731 719.070496,313.870239 
	C725.969177,315.743835 728.972351,320.671753 728.928101,330.600372 
M705.986145,323.596527 
	C705.801453,325.180206 705.616760,326.763916 705.403931,328.588623 
	C710.208008,328.588623 714.401489,328.588623 718.837341,328.588623 
	C718.180603,324.104919 718.610107,319.400665 713.333069,318.126038 
	C709.648865,317.236115 707.460083,319.607178 705.986145,323.596527 
z"/>
<path fill="#0B0B0B" opacity="1.000000" stroke="none" 
	d="
M116.437141,320.317444 
	C115.779686,327.000397 115.123901,333.618164 115.621735,340.147980 
	C116.035042,345.569122 120.553123,343.495575 123.817574,343.186554 
	C122.850143,348.404449 119.278671,351.220947 114.277649,350.771179 
	C108.367401,350.239624 105.573387,347.598236 105.476860,342.054199 
	C105.355324,335.074158 105.447556,328.090363 105.447556,320.790649 
	C103.782791,320.430634 102.264748,320.102386 100.762550,319.777557 
	C102.472176,317.341156 104.870796,315.175903 105.591660,312.550110 
	C106.342400,309.815430 105.474091,306.636292 105.290276,303.215820 
	C108.595467,301.904022 112.043213,300.535645 116.200859,298.885498 
	C115.946335,304.632721 115.723450,309.665558 115.488029,314.981262 
	C118.477234,314.981262 121.106438,314.981262 123.879433,314.981262 
	C123.879433,316.688599 123.879433,318.109039 123.879433,320.214172 
	C121.438530,320.214172 119.188370,320.214172 116.437141,320.317444 
z"/>
<path fill="#0A0A0A" opacity="1.000000" stroke="none" 
	d="
M572.191833,299.551727 
	C572.191040,313.313263 572.204285,326.631561 572.179260,339.949738 
	C572.173218,343.177032 571.711487,346.529694 576.597229,346.636810 
	C577.256226,346.651306 577.881287,348.216156 578.996765,349.690613 
	C570.977600,349.690613 564.052917,349.690613 556.068909,349.690613 
	C557.108215,348.215271 557.678284,346.626617 558.348389,346.583252 
	C562.260620,346.330048 562.173218,343.745605 562.163574,340.936066 
	C562.121826,328.783386 562.154053,316.630432 562.146362,304.477600 
	C562.144592,301.627319 562.536560,298.525085 558.038086,298.786224 
	C557.453796,298.820160 556.801453,297.679443 556.180603,297.082794 
	C556.834045,296.488586 557.407043,295.522766 558.154053,295.361145 
	C562.654480,294.387299 567.194824,293.597717 572.191833,292.658112 
	C572.191833,294.932739 572.191833,297.020599 572.191833,299.551727 
z"/>
<path fill="#0C0C0C" opacity="1.000000" stroke="none" 
	d="
M686.351746,321.611328 
	C678.048401,317.263702 672.957703,320.190765 672.903625,328.979584 
	C672.888428,331.449585 672.944336,334.015594 673.572205,336.376801 
	C675.852478,344.951660 680.910583,347.280365 692.882263,345.905701 
	C691.431458,347.469086 690.271484,349.661133 688.480713,350.489471 
	C679.677490,354.561188 668.757812,351.133545 664.529968,343.303802 
	C659.796753,334.538483 662.819580,323.582825 671.322754,318.099213 
	C676.605896,314.692169 681.858948,311.816162 688.525269,313.840302 
	C691.106506,314.624054 692.660461,315.496399 692.011475,318.575317 
	C691.402344,321.464935 691.161316,324.432159 690.758301,327.365234 
	C690.237366,327.551941 689.716431,327.738678 689.195496,327.925385 
	C688.338623,325.924194 687.481750,323.923004 686.351746,321.611328 
z"/>
<path fill="#10090A" opacity="1.000000" stroke="none" 
	d="
M326.377899,223.477600 
	C325.744293,223.130173 325.110718,222.782745 324.127472,222.017227 
	C324.171478,220.187546 324.565155,218.775970 325.042877,217.062927 
	C310.368011,205.195297 295.645355,193.288986 280.866394,180.736389 
	C281.206116,179.081177 281.602112,178.072250 282.321716,177.149506 
	C297.120575,188.866562 311.583862,200.512329 326.077576,212.120163 
	C331.080414,216.126892 331.170258,218.128082 326.377899,223.477600 
z"/>
<path fill="#130A0B" opacity="1.000000" stroke="none" 
	d="
M455.812347,212.578903 
	C469.013336,201.371399 482.356659,190.556015 496.428772,179.908234 
	C498.211700,180.434494 499.265808,180.793137 500.319885,181.151764 
	C486.104980,192.717422 471.890076,204.283096 457.350159,215.947937 
	C456.668335,215.021729 456.311493,213.996368 455.812347,212.578903 
z"/>
<path fill="#040303" opacity="1.000000" stroke="none" 
	d="
M500.635620,181.053482 
	C499.265808,180.793137 498.211700,180.434494 496.760315,179.915436 
	C499.234619,177.226608 502.106262,174.698196 505.604980,171.928818 
	C506.032684,170.828094 505.833252,169.968353 505.633820,169.108612 
	C505.188141,168.832291 504.742432,168.555954 504.050201,167.865479 
	C503.614044,167.228531 503.380676,167.070221 503.103546,166.976379 
	C498.862244,163.358551 494.620941,159.740692 490.103424,155.733704 
	C489.721344,155.210800 489.590118,155.110153 489.433472,155.042587 
	C488.853790,151.352921 489.706268,148.407013 493.961395,147.334015 
	C494.209747,149.470413 494.088226,151.308899 494.034485,153.888046 
	C494.824127,155.048187 495.545959,155.467667 496.267822,155.887161 
	C498.430084,157.643829 500.592346,159.400482 502.924713,161.822205 
	C503.854156,162.940170 504.613464,163.393066 505.372772,163.845978 
	C514.432007,170.107574 514.429688,170.104645 505.914978,176.907639 
	C504.247131,178.240204 502.605194,179.605179 500.635620,181.053482 
z"/>
<path fill="#222222" opacity="1.000000" stroke="none" 
	d="
M503.242554,248.556320 
	C503.076630,250.015839 502.912079,251.036514 502.747528,252.057205 
	C502.310577,252.061874 501.873627,252.066559 501.436676,252.071228 
	C501.242676,249.478027 501.048676,246.884842 500.758240,243.002747 
	C499.611145,246.008591 498.945496,247.959396 498.113586,249.836502 
	C497.756042,250.643265 497.053406,251.297073 496.507599,252.020386 
	C495.776581,251.307205 494.805725,250.716141 494.366852,249.854218 
	C493.569763,248.288818 493.089111,246.562286 491.671661,244.949768 
	C491.390167,247.309784 491.108673,249.669800 490.827209,252.029831 
	C490.291626,252.026566 489.756073,252.023300 489.220490,252.020035 
	C489.220490,247.460236 489.187927,242.899689 489.290558,238.342194 
	C489.297729,238.023239 490.465759,237.348328 490.816620,237.496353 
	C491.620789,237.835632 492.590149,238.443146 492.895935,239.186966 
	C494.072784,242.049576 495.014893,245.008667 496.295837,248.645218 
	C497.635803,244.847305 498.588257,241.857620 499.784576,238.968948 
	C500.069550,238.280777 501.169434,237.930084 501.894531,237.424194 
	C502.346985,238.165726 503.147766,238.888153 503.189606,239.652176 
	C503.343811,242.466492 503.246613,245.294586 503.242554,248.556320 
z"/>
<path fill="#090909" opacity="1.000000" stroke="none" 
	d="
M129.206772,349.140015 
	C125.553169,345.879730 125.520576,342.467743 128.560608,339.456696 
	C131.101837,336.939697 134.375107,336.982971 137.009628,339.486542 
	C139.631195,341.977753 139.824066,345.104736 137.548096,347.952271 
	C135.403976,350.634888 132.551147,350.838898 129.206772,349.140015 
z"/>
<path fill="#040303" opacity="1.000000" stroke="none" 
	d="
M281.998108,177.063309 
	C281.602112,178.072250 281.206116,179.081177 280.688782,180.481873 
	C277.431000,178.434280 274.348907,175.920441 271.141266,173.578644 
	C268.465851,171.625412 268.231842,169.858429 270.929718,167.718552 
	C273.782104,165.456100 276.502899,163.027771 279.562317,160.565063 
	C280.045135,160.534256 280.246857,160.610275 280.814026,161.279083 
	C281.297058,162.140152 281.414612,162.408401 281.652832,162.970505 
	C281.272095,163.882828 280.770691,164.501312 279.954102,165.076294 
	C279.427094,165.020844 279.215302,165.008881 278.948944,164.857544 
	C278.807404,164.668900 278.720490,164.619598 278.633545,164.570297 
	C278.754608,164.714569 278.875702,164.858826 278.999756,165.293289 
	C279.008972,165.776871 279.015198,165.970276 278.861816,166.428345 
	C277.747192,167.454132 276.792206,168.215256 275.654968,169.076340 
	C275.245667,169.347641 275.077454,169.564606 274.991577,170.178162 
	C277.342743,172.707199 279.670441,174.885254 281.998108,177.063309 
z"/>
<path fill="#2D2D2D" opacity="1.000000" stroke="none" 
	d="
M480.713623,244.855621 
	C480.713593,243.067856 480.713593,241.757065 480.713593,240.341629 
	C478.923645,239.855667 477.306793,239.416687 475.689941,238.977707 
	C475.734131,238.617981 475.778351,238.258255 475.822540,237.898529 
	C479.803497,237.898529 483.784454,237.898529 487.765411,237.898529 
	C487.826935,238.236923 487.888458,238.575317 487.950012,238.913712 
	C486.403442,239.340302 484.856842,239.766907 482.661438,240.372467 
	C482.661438,244.158295 482.661438,248.116287 482.661438,252.074295 
	C482.132660,252.080048 481.603851,252.085800 481.075073,252.091568 
	C480.954590,249.838577 480.834106,247.585587 480.713623,244.855621 
z"/>
<path fill="#10090A" opacity="1.000000" stroke="none" 
	d="
M322.642700,224.003113 
	C322.518005,225.163757 322.132385,226.537369 321.439178,227.957001 
	C321.548340,226.740707 321.965057,225.478394 322.642700,224.003113 
z"/>
<path fill="#130A0B" opacity="1.000000" stroke="none" 
	d="
M451.753845,102.228455 
	C451.267090,103.088554 450.492493,104.047279 449.353455,104.999237 
	C449.814697,104.104004 450.640320,103.215546 451.753845,102.228455 
z"/>
<path fill="#130A0B" opacity="1.000000" stroke="none" 
	d="
M456.762543,97.224052 
	C456.313049,98.090019 455.576691,99.054947 454.484863,100.030945 
	C454.911499,99.135689 455.693573,98.229355 456.762543,97.224052 
z"/>
<path fill="#130A0B" opacity="1.000000" stroke="none" 
	d="
M459.754333,94.228043 
	C459.306122,95.094376 458.570496,96.058929 457.479736,97.036728 
	C457.905365,96.142067 458.686157,95.234169 459.754333,94.228043 
z"/>
<path fill="#130A0B" opacity="1.000000" stroke="none" 
	d="
M464.752747,89.227081 
	C464.306091,90.092903 463.572723,91.056412 462.484406,92.030975 
	C462.908295,91.136269 463.687195,90.230515 464.752747,89.227081 
z"/>
<path fill="#130A0B" opacity="1.000000" stroke="none" 
	d="
M496.148865,155.599945 
	C495.545959,155.467667 494.824127,155.048187 494.064697,154.281097 
	C494.694733,154.393234 495.362335,154.852982 496.148865,155.599945 
z"/>
<path fill="#10090A" opacity="1.000000" stroke="none" 
	d="
M313.719513,246.157959 
	C313.786224,246.935745 313.595886,247.927597 313.108643,248.922668 
	C313.028656,248.074585 313.245544,247.223297 313.719513,246.157959 
z"/>
<path fill="#130A0B" opacity="1.000000" stroke="none" 
	d="
M505.243591,163.545425 
	C504.613464,163.393066 503.854156,162.940170 503.059692,162.114227 
	C503.721222,162.242416 504.417816,162.743652 505.243591,163.545425 
z"/>
<path fill="#10090A" opacity="1.000000" stroke="none" 
	d="
M286.201050,152.410583 
	C286.310822,152.898636 286.448120,153.781036 286.336365,154.838501 
	C286.134369,154.277359 286.181458,153.541138 286.201050,152.410583 
z"/>
<path fill="#10090A" opacity="1.000000" stroke="none" 
	d="
M308.587006,104.752838 
	C308.764862,105.183083 308.693024,105.845657 308.378357,106.746613 
	C308.202820,106.318390 308.270081,105.651772 308.587006,104.752838 
z"/>
<path fill="#10090A" opacity="1.000000" stroke="none" 
	d="
M275.336304,123.072449 
	C275.638550,123.023872 275.993347,122.992165 276.348114,122.960449 
	C276.156311,123.137444 275.964508,123.314438 275.486023,123.357445 
	C275.199341,123.223450 275.388794,123.089317 275.336304,123.072449 
z"/>
<path fill="#130A0B" opacity="1.000000" stroke="none" 
	d="
M465.865723,241.768402 
	C465.499542,241.702377 465.176453,241.397827 465.057220,240.996490 
	C465.640289,240.941971 465.856171,241.152023 465.865723,241.768402 
z"/>
<path fill="#10090A" opacity="1.000000" stroke="none" 
	d="
M318.952698,91.739067 
	C318.673584,91.918030 318.402374,91.735703 318.108643,91.215302 
	C318.305756,91.150909 318.597260,91.317757 318.952698,91.739067 
z"/>
<path fill="#10090A" opacity="1.000000" stroke="none" 
	d="
M317.951172,90.725922 
	C317.739014,90.796028 317.462555,90.606667 317.089081,90.179703 
	C317.290344,90.116890 317.588593,90.291672 317.951172,90.725922 
z"/>
<path fill="#10090A" opacity="1.000000" stroke="none" 
	d="
M273.385803,120.493790 
	C273.600586,120.505844 273.734070,120.697052 273.940491,121.230164 
	C273.777130,121.272354 273.540802,120.972649 273.385803,120.493790 
z"/>
<path fill="#130A0B" opacity="1.000000" stroke="none" 
	d="
M472.944214,108.289917 
	C472.719574,108.208290 472.564789,107.870392 472.571594,107.282196 
	C472.826782,107.365814 472.920441,107.699730 472.944214,108.289917 
z"/>
<path fill="#130A0B" opacity="1.000000" stroke="none" 
	d="
M473.980133,113.742783 
	C473.788696,113.737000 473.661316,113.476013 473.677002,113.113205 
	C473.894806,113.170120 473.969513,113.328842 473.980133,113.742783 
z"/>
<path fill="#F9F9F9" opacity="1.000000" stroke="none" 
	d="
M454.138794,140.137085 
	C446.307037,147.755859 438.475250,155.374634 430.601196,163.034531 
	C438.568298,171.819138 445.985321,179.997192 453.402313,188.175247 
	C453.115662,188.600555 452.828979,189.025864 452.542328,189.451172 
	C433.184265,181.861008 413.826172,174.270859 393.266357,166.209503 
	C401.306396,186.608170 408.958984,206.023911 416.611603,225.439651 
	C416.281769,225.634521 415.951935,225.829407 415.622101,226.024277 
	C407.315277,218.716599 399.008423,211.408920 390.512604,203.934982 
	C381.829620,211.623245 373.261932,219.209457 364.694244,226.795670 
	C364.410248,226.656403 364.126282,226.517136 363.842316,226.377869 
	C371.674347,206.727722 379.506409,187.077560 387.829742,166.194748 
	C366.756744,174.470093 346.691040,182.349884 325.269196,190.762222 
	C334.197815,180.945419 342.087463,172.270935 350.092834,163.469208 
	C342.406342,156.128174 334.847198,148.908768 327.288025,141.689346 
	C327.437408,141.256058 327.586792,140.822754 327.736145,140.389450 
	C347.580139,146.361740 366.919891,153.966873 387.804993,160.712784 
	C379.757782,140.583313 372.112274,121.458687 364.466797,102.334068 
	C364.662170,101.991760 364.857544,101.649445 365.052948,101.307129 
	C373.488892,108.474663 381.924805,115.642204 390.549438,122.970070 
	C398.791962,115.832199 407.002686,108.721855 415.213409,101.611504 
	C415.549683,101.859734 415.885925,102.107964 416.222168,102.356194 
	C408.716370,121.405891 401.210602,140.455582 393.215363,160.747467 
	C413.772034,153.529968 433.351929,146.655411 453.419281,139.843964 
	C453.906708,139.907089 454.138794,140.137070 454.138794,140.137085 
z"/>
<path fill="#D9011A" opacity="1.000000" stroke="none" 
	d="
M280.269318,165.119781 
	C280.770691,164.501312 281.272095,163.882828 281.688843,162.945755 
	C281.604156,162.627167 281.698853,162.641541 281.698853,162.641541 
	C286.114105,161.007202 290.155670,158.979996 290.955444,153.056046 
	C290.590454,152.125763 290.371094,151.837341 290.151764,151.548920 
	C288.788513,147.902283 287.425262,144.255630 285.878235,140.049789 
	C285.586670,139.175583 285.376312,138.961182 285.063354,138.847412 
	C285.063354,138.847412 285.039886,138.389771 284.932068,137.922546 
	C284.583435,137.214340 284.342621,136.973343 284.101837,136.732346 
	C282.654266,132.800018 281.134979,128.891663 279.808258,124.918961 
	C279.465332,123.892059 279.726746,122.663361 280.145599,121.484047 
	C280.864471,121.450752 281.093933,121.343758 281.269043,121.119766 
	C287.882935,121.053040 294.496826,120.986320 301.987915,120.902832 
	C304.990601,120.296204 307.116089,119.706345 309.241608,119.116501 
	C309.589172,117.829536 309.936737,116.542572 310.461731,114.718475 
	C310.694885,113.797104 310.750641,113.412857 310.806396,113.028618 
	C311.938843,108.178856 312.958649,103.297897 314.287292,98.502487 
	C314.597839,97.381653 315.955505,96.550926 317.113464,95.983459 
	C317.519714,96.607780 317.708008,96.691528 317.960388,96.631454 
	C322.597565,101.269478 327.234772,105.907501 332.134216,111.010529 
	C332.396515,111.475533 332.686157,111.800804 332.686157,111.800812 
	C331.922607,112.806030 331.159058,113.811249 330.010529,115.102974 
	C329.406036,115.521027 329.335297,115.708847 329.413330,115.952927 
	C328.565887,117.090004 327.718445,118.227081 326.774475,119.735100 
	C326.677979,120.106041 326.650909,120.158699 326.650909,120.158699 
	C325.172363,122.268623 323.693848,124.378548 321.971924,126.899513 
	C321.525269,127.465492 321.454346,127.667000 321.515717,127.915070 
	C299.116577,169.681610 319.671234,227.205093 376.996094,238.554382 
	C376.107300,241.033234 375.461700,243.560974 374.278992,245.805771 
	C373.740509,246.827805 372.143738,247.908264 371.021240,247.914429 
	C353.726196,248.009277 336.430176,247.933487 319.134460,247.874588 
	C318.868164,247.873672 318.602844,247.586487 318.041779,247.262222 
	C318.656311,245.475967 319.288422,243.638611 320.173462,241.322510 
	C320.722321,240.641586 320.814362,240.370255 320.702515,240.029770 
	C322.572937,235.290985 324.443329,230.552185 326.432190,225.023956 
	C326.155701,223.924026 325.760803,223.613571 325.365875,223.303101 
	C325.526062,223.351425 325.686279,223.399734 326.112183,223.462830 
	C331.170258,218.128082 331.080414,216.126892 326.077576,212.120163 
	C311.583862,200.512329 297.120575,188.866562 282.321716,177.149506 
	C279.670441,174.885254 277.342743,172.707199 275.198059,170.110809 
	C275.637268,169.520142 275.789337,169.281448 275.837219,168.976379 
	C276.792206,168.215256 277.747192,167.454132 279.128540,166.333984 
	C279.793030,165.689896 280.031158,165.404846 280.269318,165.119781 
z"/>
<path fill="#D9011A" opacity="1.000000" stroke="none" 
	d="
M380.401550,46.414047 
	C383.833740,41.109852 387.053650,36.098366 390.693481,30.433304 
	C395.831024,38.512623 400.681030,46.037632 405.426910,53.627750 
	C412.027863,64.184715 411.993835,64.203918 423.537079,60.026756 
	C427.411804,58.624607 431.290527,57.233448 435.954163,55.553936 
	C434.787079,70.016075 433.672516,83.827553 432.466370,98.773857 
	C404.736328,83.842957 377.202911,83.725319 348.911865,98.562660 
	C347.868805,84.149345 346.869965,70.347206 345.799622,55.557228 
	C352.345795,58.032829 358.247864,60.021885 363.934387,62.504707 
	C367.455139,64.041908 369.646118,63.752182 371.631561,60.197815 
	C374.224548,55.555798 377.313629,51.190887 380.401550,46.414047 
z"/>
<path fill="#130A0B" opacity="1.000000" stroke="none" 
	d="
M485.706116,120.503792 
	C481.856140,120.652664 477.758148,120.557610 473.326569,120.232376 
	C477.148010,120.088097 481.303040,120.173981 485.706116,120.503792 
z"/>
<path fill="#10090A" opacity="1.000000" stroke="none" 
	d="
M308.826477,119.082611 
	C307.116089,119.706345 304.990601,120.296204 302.450989,120.813286 
	C304.161713,120.176582 306.286499,119.612656 308.826477,119.082611 
z"/>
<path fill="#130A0B" opacity="1.000000" stroke="none" 
	d="
M502.332886,123.991867 
	C501.976868,123.262123 501.958344,122.527306 501.795959,121.450439 
	C502.603485,121.749718 503.554871,122.391045 504.506256,123.032364 
	C503.894287,123.350502 503.282349,123.668648 502.332886,123.991867 
z"/>
<path fill="#130A0B" opacity="1.000000" stroke="none" 
	d="
M463.183228,248.253662 
	C463.042114,247.591232 463.066345,247.145142 463.108673,246.360107 
	C463.624146,246.772263 464.121521,247.523376 464.618896,248.274506 
	C464.195465,248.339676 463.772034,248.404861 463.183228,248.253662 
z"/>
<path fill="#130A0B" opacity="1.000000" stroke="none" 
	d="
M448.654968,111.024940 
	C448.937958,111.433937 448.928192,111.886055 448.930054,112.677139 
	C448.748505,112.366760 448.555328,111.717415 448.654968,111.024940 
z"/>
<path fill="#130A0B" opacity="1.000000" stroke="none" 
	d="
M458.222839,232.841751 
	C457.694550,232.533615 457.390442,232.059875 457.105164,231.291046 
	C457.565002,231.556015 458.006012,232.116074 458.222839,232.841751 
z"/>
<path fill="#10090A" opacity="1.000000" stroke="none" 
	d="
M326.751038,120.450562 
	C326.650909,120.158699 326.677979,120.106041 326.675964,120.076317 
	C327.217590,120.200020 327.761230,120.353447 328.304840,120.506874 
	C328.169189,120.751106 327.985229,121.218567 327.906128,121.201447 
	C327.538574,121.121895 327.200073,120.908134 326.751038,120.450562 
z"/>
<path fill="#10090A" opacity="1.000000" stroke="none" 
	d="
M284.138306,136.984253 
	C284.342621,136.973343 284.583435,137.214340 284.831848,137.716492 
	C284.617920,137.730499 284.396332,137.483322 284.138306,136.984253 
z"/>
<path fill="#130A0B" opacity="1.000000" stroke="none" 
	d="
M471.868896,119.550224 
	C471.956726,119.700157 471.546997,119.725105 471.546997,119.725105 
	C471.546997,119.725105 471.253662,119.438103 471.227631,119.234467 
	C471.432556,119.094757 471.625702,119.217911 471.868896,119.550224 
z"/>
<path fill="#F9F9F9" opacity="1.000000" stroke="none" 
	d="
M453.790436,139.792328 
	C454.044159,139.553131 454.414185,139.428665 454.784180,139.304214 
	C454.756714,139.536362 454.729248,139.768494 454.420288,140.068848 
	C454.138794,140.137070 453.906708,139.907089 453.790436,139.792328 
z"/>
<path fill="#10090A" opacity="1.000000" stroke="none" 
	d="
M317.895111,96.511749 
	C317.708008,96.691528 317.519714,96.607780 317.404114,96.215294 
	C317.581268,96.128250 317.720306,96.242142 317.895111,96.511749 
z"/>
<path fill="#130A0B" opacity="1.000000" stroke="none" 
	d="
M466.833252,96.145340 
	C466.630798,96.135178 466.413300,95.835739 466.153809,95.259720 
	C466.347260,95.274109 466.582733,95.565079 466.833252,96.145340 
z"/>
<path fill="#10090A" opacity="1.000000" stroke="none" 
	d="
M285.098816,139.068237 
	C285.376312,138.961182 285.586670,139.175583 285.700653,139.721466 
	C285.432953,139.802979 285.242096,139.581879 285.098816,139.068237 
z"/>
<path fill="#10090A" opacity="1.000000" stroke="none" 
	d="
M332.720154,111.687683 
	C332.686157,111.800804 332.396515,111.475533 332.378845,111.258904 
	C332.608368,111.140762 332.739349,111.318192 332.720154,111.687683 
z"/>
<path fill="#130A0B" opacity="1.000000" stroke="none" 
	d="
M498.483887,131.834488 
	C498.255951,131.636414 498.349213,131.378601 498.796143,131.089203 
	C498.956604,131.277740 498.841705,131.516785 498.483887,131.834488 
z"/>
<path fill="#10090A" opacity="1.000000" stroke="none" 
	d="
M321.631775,127.814438 
	C321.454346,127.667000 321.525269,127.465492 321.883911,127.242554 
	C321.980988,127.375320 321.883850,127.555069 321.631775,127.814438 
z"/>
<path fill="#10090A" opacity="1.000000" stroke="none" 
	d="
M281.099609,121.093231 
	C281.093933,121.343758 280.864471,121.450752 280.427124,121.323486 
	C280.481995,121.110703 280.700897,121.064186 281.099609,121.093231 
z"/>
<path fill="#10090A" opacity="1.000000" stroke="none" 
	d="
M290.162720,151.826263 
	C290.371094,151.837341 290.590454,152.125763 290.813202,152.690491 
	C290.602295,152.679047 290.388000,152.391327 290.162720,151.826263 
z"/>
<path fill="#10090A" opacity="1.000000" stroke="none" 
	d="
M310.598907,113.233353 
	C310.750641,113.412857 310.694885,113.797104 310.414551,114.378258 
	C310.257141,114.196136 310.324280,113.817108 310.598907,113.233353 
z"/>
<path fill="#10090A" opacity="1.000000" stroke="none" 
	d="
M329.523010,115.887238 
	C329.335297,115.708847 329.406036,115.521027 329.785645,115.408379 
	C329.873291,115.584015 329.768951,115.715431 329.523010,115.887238 
z"/>
<path fill="#130A0B" opacity="1.000000" stroke="none" 
	d="
M470.783813,116.288101 
	C470.563751,116.262764 470.354431,115.941048 470.158447,115.322754 
	C470.379425,115.348022 470.586975,115.669868 470.783813,116.288101 
z"/>
<path fill="#10090A" opacity="1.000000" stroke="none" 
	d="
M281.750000,162.316437 
	C281.698853,162.641541 281.604156,162.627167 281.568146,162.651917 
	C281.414612,162.408401 281.297058,162.140152 281.093811,161.441162 
	C281.272491,161.337402 281.536804,161.664368 281.750000,162.316437 
z"/>
<path fill="#10090A" opacity="1.000000" stroke="none" 
	d="
M320.533173,240.158020 
	C320.814362,240.370255 320.722321,240.641586 320.220825,240.946564 
	C320.047943,240.756836 320.164154,240.502472 320.533173,240.158020 
z"/>
<path fill="#10090A" opacity="1.000000" stroke="none" 
	d="
M325.353577,223.680008 
	C325.760803,223.613571 326.155701,223.924026 326.481689,224.638184 
	C326.055603,224.713531 325.698456,224.385223 325.353577,223.680008 
z"/>
<path fill="#130A0B" opacity="1.000000" stroke="none" 
	d="
M505.765900,169.452423 
	C505.833252,169.968353 506.032684,170.828094 505.893250,171.789124 
	C505.668945,171.192337 505.783478,170.494263 505.765900,169.452423 
z"/>
<path fill="#130A0B" opacity="1.000000" stroke="none" 
	d="
M489.445984,155.188477 
	C489.590118,155.110153 489.721344,155.210800 489.890106,155.449738 
	C489.730164,155.611389 489.565308,155.537857 489.445984,155.188477 
z"/>
<path fill="#130A0B" opacity="1.000000" stroke="none" 
	d="
M503.169006,167.201385 
	C503.380676,167.070221 503.614044,167.228531 503.917664,167.631470 
	C503.677704,167.865784 503.411957,167.737381 503.169006,167.201385 
z"/>
<path fill="#EBEBEB" opacity="1.000000" stroke="none" 
	d="
M370.792358,323.383789 
	C371.396240,325.117004 371.856659,326.473206 372.457550,328.243042 
	C367.274658,328.243042 362.559357,328.243042 357.207672,328.243042 
	C359.656036,321.972778 362.001923,315.964996 364.745636,308.938385 
	C366.974945,314.251221 368.811920,318.629028 370.792358,323.383789 
z"/>
<path fill="#F9F9F9" opacity="1.000000" stroke="none" 
	d="
M492.418091,320.349304 
	C499.465759,324.508545 498.529144,336.771545 495.024017,341.702240 
	C492.710358,344.956909 489.453979,345.784882 485.815857,344.675385 
	C482.316101,343.608093 480.316132,341.375977 480.779327,337.303558 
	C481.095245,334.525879 480.831177,331.682922 480.837189,328.869171 
	C480.855682,320.227753 483.651062,318.065979 492.418091,320.349304 
z"/>
<path fill="#F9F9F9" opacity="1.000000" stroke="none" 
	d="
M201.631958,321.122040 
	C204.160904,319.249390 206.750244,316.239075 208.721954,316.600250 
	C211.118530,317.039276 214.390869,320.064941 214.821289,322.421509 
	C215.903000,328.343994 216.191925,334.583496 215.547379,340.560944 
	C215.303024,342.827057 211.738556,346.201874 209.484772,346.371002 
	C207.243073,346.539246 203.051895,343.620453 202.677032,341.525452 
	C201.505463,334.977753 201.733215,328.179688 201.631958,321.122040 
z"/>
<path fill="#ECECEC" opacity="1.000000" stroke="none" 
	d="
M598.488098,331.996368 
	C599.524658,331.829346 600.472778,331.431274 600.708740,331.687927 
	C602.642151,333.791107 601.564392,340.769379 599.101929,342.260345 
	C596.576172,343.789551 593.728516,345.027496 591.802307,341.759918 
	C589.982422,338.672760 590.666443,335.650787 593.961792,333.724854 
	C595.222961,332.987762 596.694153,332.610138 598.488098,331.996368 
z"/>
<path fill="#F3F3F3" opacity="1.000000" stroke="none" 
	d="
M706.069336,323.221100 
	C707.460083,319.607178 709.648865,317.236115 713.333069,318.126038 
	C718.610107,319.400665 718.180603,324.104919 718.837341,328.588623 
	C714.401489,328.588623 710.208008,328.588623 705.403931,328.588623 
	C705.616760,326.763916 705.801453,325.180206 706.069336,323.221100 
z"/>
<path fill="#10090A" opacity="1.000000" stroke="none" 
	d="
M278.996765,165.003098 
	C278.875702,164.858826 278.754608,164.714569 278.633545,164.570297 
	C278.720490,164.619598 278.807404,164.668900 278.947174,164.859100 
	C279.000000,165.000000 278.996765,165.003098 278.996765,165.003098 
z"/>
<path fill="#10090A" opacity="1.000000" stroke="none" 
	d="
M279.954102,165.076309 
	C280.031158,165.404846 279.793030,165.689896 279.288147,166.069321 
	C279.015198,165.970276 279.008972,165.776871 278.999756,165.293289 
	C278.996765,165.003098 279.000000,165.000000 279.001770,164.998444 
	C279.215302,165.008881 279.427094,165.020844 279.954102,165.076309 
z"/>
<path fill="#10090A" opacity="1.000000" stroke="none" 
	d="
M275.654968,169.076355 
	C275.789337,169.281448 275.637268,169.520142 275.174561,169.759827 
	C275.077454,169.564606 275.245667,169.347641 275.654968,169.076355 
z"/>
</svg>